<mxfile host="app.diagrams.net" modified="2023-05-28T16:55:02.697Z" agent="Mozilla/5.0 (Macintosh; Intel Mac OS X 10_14_6) AppleWebKit/605.1.15 (KHTML, like Gecko) Version/14.1.2 Safari/605.1.15" version="21.3.5" etag="-7Fdcmjuda743w-uCHyq" type="github">
  <diagram name="Сторінка-1" id="800rn6w10EP1AYBsha_Q">
    <mxGraphModel>
      <root>
        <mxCell id="0" />
        <mxCell id="1" parent="0" />
      </root>
    </mxGraphModel>
  </diagram>
</mxfile>
